<svg height="512" viewBox="0 0 64 64" width="512" xmlns="http://www.w3.org/2000/svg"><g id="Wrench-3" data-name="Wrench"><path d="m20.333 58a2 2 0 0 1 1.2.4l2.934 2.2a2 2 0 0 0 1.2.4h20.333a3 3 0 0 0 0-6h2a3 3 0 0 0 0-6h2a3 3 0 0 0 0-6h2a3 3 0 0 0 2.992-3.22 3.116 3.116 0 0 0 -3.161-2.78h-16.831a2 2 0 0 1 -2-2v-7h-4.172a2 2 0 0 0 -1.414.586l-5.828 5.828a2 2 0 0 1 -1.414.586h-3.172v23z" fill="#ffbcab"/><path d="m42 2.84v10.16l-4 3-4-3v-10.16a9.994 9.994 0 0 0 -2.4 16.84 3.945 3.945 0 0 1 1.4 3.034v12.286a2 2 0 0 0 2 2h8v-14.286a3.945 3.945 0 0 1 1.4-3.034 9.994 9.994 0 0 0 -2.4-16.84z" fill="#ffcd00"/><path d="m36 20.714a3.945 3.945 0 0 0 -1.4-3.034 9.988 9.988 0 0 1 -.6-14.813v-.027a9.994 9.994 0 0 0 -2.4 16.84 3.945 3.945 0 0 1 1.4 3.034v12.286a2 2 0 0 0 2 2h1z" fill="#ddb200"/><path d="m17 58v-26h-14v29h14zm-7-1a2 2 0 1 1 2-2 2 2 0 0 1 -2 2z" fill="#006df0"/><circle cx="10" cy="55" fill="#ff5023" r="2"/><path d="m3 32h4v29h-4z" fill="#005ece"/><g fill="#ff9478"><path d="m50 43h-10v1h12.224a2.982 2.982 0 0 0 -2.224-1z"/><path d="m48 49h-8v1h10.224a2.982 2.982 0 0 0 -2.224-1z"/><path d="m46 55h-6v1h8.224a2.982 2.982 0 0 0 -2.224-1z"/></g></g></svg>
