<?xml version="1.0" encoding="utf-8"?>
<!-- Generator: Adobe Illustrator 16.0.0, SVG Export Plug-In . SVG Version: 6.00 Build 0)  -->
<!DOCTYPE svg PUBLIC "-//W3C//DTD SVG 1.1//EN" "http://www.w3.org/Graphics/SVG/1.1/DTD/svg11.dtd">
<svg version="1.1" id="Layer_1" xmlns="http://www.w3.org/2000/svg" xmlns:xlink="http://www.w3.org/1999/xlink" x="0px" y="0px"
	 width="612px" height="792px" viewBox="0 0 612 792" enable-background="new 0 0 612 792" xml:space="preserve">
<g>
	<g>
		<path fill="#EE4C7C" d="M305.995,90C137.002,90,0.002,227.004,0.002,395.997c0,168.989,137,306.003,305.993,306.003
			s306.003-137.014,306.003-306.003C611.998,227.004,474.988,90,305.995,90z M306.002,197.48L487.08,310.396H124.923L306.002,197.48
			z M489.336,490.707h-0.019c0,18.111-14.678,32.787-32.787,32.787H155.472c-18.111,0-32.787-14.678-32.787-32.787V317.581
			c0-1.916,0.195-3.778,0.514-5.608l173.01,107.882c0.213,0.133,0.439,0.223,0.657,0.346c0.229,0.126,0.461,0.248,0.693,0.364
			c1.223,0.631,2.481,1.139,3.769,1.472c0.133,0.036,0.265,0.053,0.397,0.083c1.412,0.333,2.842,0.541,4.27,0.541h0.011
			c0.01,0,0.021,0,0.021,0c1.428,0,2.857-0.202,4.27-0.541c0.133-0.032,0.265-0.047,0.397-0.083c1.285-0.333,2.54-0.841,3.769-1.472
			c0.232-0.116,0.465-0.238,0.693-0.364c0.216-0.123,0.444-0.213,0.657-0.346l173.01-107.882c0.318,1.83,0.514,3.688,0.514,5.608
			V490.707L489.336,490.707z"/>
	</g>
</g>
</svg>
