<?xml version="1.0" encoding="utf-8"?>
<!-- Generator: Adobe Illustrator 16.0.0, SVG Export Plug-In . SVG Version: 6.00 Build 0)  -->
<!DOCTYPE svg PUBLIC "-//W3C//DTD SVG 1.1//EN" "http://www.w3.org/Graphics/SVG/1.1/DTD/svg11.dtd">
<svg version="1.1" id="Layer_1" xmlns="http://www.w3.org/2000/svg" xmlns:xlink="http://www.w3.org/1999/xlink" x="0px" y="0px"
	 width="612px" height="792px" viewBox="0 0 612 792" enable-background="new 0 0 612 792" xml:space="preserve">
<title>Facebook icon</title>
<g id="XMLID_1_">
	<g>
		<path fill="#EE4C7C" d="M611.95,395.98c0,152.72-111.891,279.3-258.16,302.26V484.42h71.29l13.57-88.44h-84.86v-57.4
			c0-24.2,11.85-47.78,49.86-47.78h38.58v-75.3c0,0-35.021-5.98-68.49-5.98c-69.89,0-115.57,42.36-115.57,119.05v67.41h-77.69v88.44
			h77.69v213.82C111.89,675.28,0,548.7,0,395.98C0,226.99,136.99,90,305.98,90C474.96,90,611.95,226.99,611.95,395.98z"/>
	</g>
	<g>
	</g>
</g>
</svg>
