<?xml version="1.0" encoding="utf-8"?>
<!-- Generator: Adobe Illustrator 16.0.0, SVG Export Plug-In . SVG Version: 6.00 Build 0)  -->
<!DOCTYPE svg PUBLIC "-//W3C//DTD SVG 1.1//EN" "http://www.w3.org/Graphics/SVG/1.1/DTD/svg11.dtd">
<svg version="1.1" id="Capa_1" xmlns="http://www.w3.org/2000/svg" xmlns:xlink="http://www.w3.org/1999/xlink" x="0px" y="0px"
	 width="485.213px" height="485.211px" viewBox="0 0 485.213 485.211" enable-background="new 0 0 485.213 485.211"
	 xml:space="preserve">
<g>
	<path fill="#EE4C7C" d="M242.607,0C108.629,0,0.001,108.628,0.001,242.606c0,133.977,108.628,242.605,242.605,242.605
		c133.979,0,242.604-108.631,242.604-242.605C485.212,108.628,376.585,0,242.607,0z M370.719,353.989l-19.425,19.43
		c-3.469,3.463-13.623,5.623-13.949,5.623c-61.452,0.537-120.621-23.602-164.095-67.08c-43.593-43.617-67.759-102.998-67.11-164.656
		c0-0.028,2.224-9.892,5.689-13.324l19.424-19.427c7.107-7.141,20.762-10.368,30.327-7.168l4.086,1.363
		c9.537,3.197,19.55,13.742,22.185,23.457l9.771,35.862c2.635,9.743-0.919,23.604-8.025,30.712l-12.97,12.972
		c12.733,47.142,49.723,84.138,96.872,96.903l12.966-12.975c7.141-7.141,20.997-10.691,30.719-8.061l35.856,9.805
		c9.718,2.671,20.261,12.621,23.456,22.154l1.363,4.146C381.028,333.262,377.825,346.913,370.719,353.989z"/>
</g>
</svg>
