<?xml version="1.0" encoding="utf-8"?>
<!-- Generator: Adobe Illustrator 16.0.0, SVG Export Plug-In . SVG Version: 6.00 Build 0)  -->
<!DOCTYPE svg PUBLIC "-//W3C//DTD SVG 1.1//EN" "http://www.w3.org/Graphics/SVG/1.1/DTD/svg11.dtd">
<svg version="1.1" id="Layer_1" xmlns="http://www.w3.org/2000/svg" xmlns:xlink="http://www.w3.org/1999/xlink" x="0px" y="0px"
	 width="612px" height="792px" viewBox="0 0 612 792" enable-background="new 0 0 612 792" xml:space="preserve">
<title>Twitter icon</title>
<path fill="#EE4C7C" d="M610.827,206.51c-22.567,9.919-46.665,16.677-72.037,19.762c25.856-15.581,45.747-40.137,55.156-69.437
	c-24.25,14.152-51.127,24.455-79.738,30.192c-22.848-24.454-55.411-39.754-91.57-39.754c-69.284,0-125.46,56.177-125.46,125.383
	c0,9.945,1.147,19.508,3.238,28.662c-104.295-4.921-196.732-55.003-258.596-130.713c-10.889,18.411-16.983,39.806-16.983,63.112
	c0,43.605,22.186,81.932,55.794,104.448c-20.578-0.663-39.933-6.324-56.813-15.708v1.556c0,60.817,43.171,111.537,100.623,123.088
	c-10.531,2.831-21.649,4.361-33.048,4.361c-8.008,0-15.683-0.766-23.358-2.193c16.091,49.802,62.348,86.113,117.402,87.134
	c-42.84,33.634-97.13,53.677-155.602,53.677c-9.944,0-19.864-0.586-29.835-1.708c55.819,35.547,121.584,56.329,192.704,56.329
	c230.877,0,356.975-191.147,356.975-356.643c0-5.33,0-10.71-0.383-16.065c24.506-17.57,45.9-39.78,62.73-64.974L610.827,206.51
	L610.827,206.51z"/>
</svg>
