<?xml version="1.0" encoding="utf-8"?>
<!-- Generator: Adobe Illustrator 16.0.0, SVG Export Plug-In . SVG Version: 6.00 Build 0)  -->
<!DOCTYPE svg PUBLIC "-//W3C//DTD SVG 1.1//EN" "http://www.w3.org/Graphics/SVG/1.1/DTD/svg11.dtd">
<svg version="1.1" id="Layer_1" xmlns="http://www.w3.org/2000/svg" xmlns:xlink="http://www.w3.org/1999/xlink" x="0px" y="0px"
	 width="612px" height="792px" viewBox="0 0 612 792" enable-background="new 0 0 612 792" xml:space="preserve">
<g>
	<g>
		<path fill="#EE4C7C" d="M305.995,90C137.002,90,0.002,227.004,0.002,395.997c0,168.989,137,306.003,305.993,306.003
			s306.003-137.014,306.003-306.003C611.998,227,474.988,90,305.995,90z M306.927,540.361v-0.005h-1.869H174.35
			c0-95.587,83.951-95.564,102.581-120.559l2.132-11.397c-26.174-13.264-44.65-45.244-44.65-82.646
			c0-49.274,32.053-89.227,71.582-89.227s71.583,39.952,71.583,89.227c0,37.083-18.148,68.863-43.973,82.337l2.427,12.952
			c20.439,23.783,101.598,25.333,101.598,119.317H306.927z"/>
	</g>
</g>
</svg>
