<?xml version="1.0" encoding="utf-8"?>
<!-- Generator: Adobe Illustrator 16.0.0, SVG Export Plug-In . SVG Version: 6.00 Build 0)  -->
<!DOCTYPE svg PUBLIC "-//W3C//DTD SVG 1.1//EN" "http://www.w3.org/Graphics/SVG/1.1/DTD/svg11.dtd">
<svg version="1.1" id="Layer_1" xmlns="http://www.w3.org/2000/svg" xmlns:xlink="http://www.w3.org/1999/xlink" x="0px" y="0px"
	 width="86.667px" height="83.997px" viewBox="0 0 86.667 83.997" enable-background="new 0 0 86.667 83.997" xml:space="preserve">
<g>
	<path fill-rule="evenodd" clip-rule="evenodd" fill="#E9507C" d="M15.647,26.442l16.913,10.895v12.142c0,0-1.964,7.36-2.501,7.349
		s-16.08-10.636-16.08-10.636L15.647,26.442z"/>
	<path fill-rule="evenodd" clip-rule="evenodd" fill="#E9507C" d="M15.636,26.503l16.88,10.946l11.07-4.987
		c0,0,5.904-4.813,5.674-5.299S32.958,16.871,32.958,16.871L15.636,26.503z"/>
	<g>
		<path fill-rule="evenodd" clip-rule="evenodd" fill="#E9507C" d="M73.991,16.999l-16.396,11.66L46.321,24.15
			c0,0-6.104-4.556-5.896-5.051c0.21-0.495,15.846-10.982,15.846-10.982L73.991,16.999z"/>
		<path fill-rule="evenodd" clip-rule="evenodd" fill="#E9507C" d="M73.938,16.965l-16.431,11.61l0.521,12.131
			c0,0,2.277,7.269,2.813,7.235s15.609-11.315,15.609-11.315L73.938,16.965z"/>
	</g>
	<g>
		<path fill-rule="evenodd" clip-rule="evenodd" fill="#E9507C" d="M51.872,75.203l0.064-20.119l10.229-6.543
			c0,0,7.259-2.311,7.539-1.853c0.28,0.459-0.295,19.277-0.295,19.277L51.872,75.203z"/>
		<path fill-rule="evenodd" clip-rule="evenodd" fill="#E9507C" d="M51.931,75.179l0.125-20.118l-10.167-6.638
			c0,0-7.236-2.38-7.521-1.924c-0.283,0.456,0.114,19.279,0.114,19.279L51.931,75.179z"/>
	</g>
</g>
</svg>
