<?xml version="1.0" encoding="utf-8"?>
<!-- Generator: Adobe Illustrator 17.1.0, SVG Export Plug-In . SVG Version: 6.00 Build 0)  -->
<!DOCTYPE svg PUBLIC "-//W3C//DTD SVG 1.1//EN" "http://www.w3.org/Graphics/SVG/1.1/DTD/svg11.dtd">
<svg version="1.1" id="Layer_1" xmlns="http://www.w3.org/2000/svg" xmlns:xlink="http://www.w3.org/1999/xlink" x="0px" y="0px"
	 viewBox="0 307.4 612 479.7" enable-background="new 0 307.4 612 479.7" xml:space="preserve">
<g id="BACKGROUND">
	<rect y="246.1" fill="#FFFFFF" width="612" height="612"/>
</g>
<g id="OBJECTS">
	<g>
		<path fill="#E3AFBC" d="M368.4,484.8c108.8-38.3,220.8,14.8,153.2,133.7c-65.7,115.7,31.1,146.3,31.1,146.3l-395.8-2.1
			C76.4,733.5,7.8,606.8,83.2,566.9c0,0,48-9.2,52.3-42.7c4.3-33.4-14.8-61,16-82S234,426.9,282,467.9
			C318.9,499.6,368.4,484.8,368.4,484.8z"/>
	</g>
	<ellipse fill="#E3AFBC" cx="308.4" cy="770" rx="270.9" ry="17.1"/>
	<g>
		<path fill="#E3AFBC" d="M185.7,358.6c0,1.2-0.5,2.4-1.3,3.3c-0.9,0.9-2,1.3-3.3,1.3H81.3c-2.6,0-4.7-2.1-4.7-4.7
			c0-1.2,0.5-2.4,1.3-3.3c0.9-0.9,2-1.3,3.3-1.3h4.7c1.8-4.3,6.1-7.3,11.1-7.3c3.4,0,6.4,1.3,8.6,3.5c2.9-5,8.3-8.3,14.6-8.3
			c1.7,0,3.3,0.2,4.9,0.7c3.2-6.1,9.7-10.3,17-10.3c8.9,0,16.4,6,18.6,14.2c1.6-0.9,3.4-1.3,5.4-1.3c5.5,0,10.2,3.7,11.6,8.8h3.1
			C183.5,353.9,185.7,356,185.7,358.6z"/>
		<path fill="#E3AFBC" d="M546.1,361.9c0,1.2-0.5,2.4-1.3,3.3c-0.9,0.9-2,1.3-3.3,1.3h-99.6c-2.6,0-4.7-2.1-4.7-4.7
			c0-1.2,0.5-2.4,1.3-3.3s2-1.3,3.3-1.3h4.7c1.8-4.3,6.1-7.3,11.1-7.3c3.4,0,6.4,1.3,8.6,3.5c2.9-5,8.3-8.3,14.6-8.3
			c1.7,0,3.3,0.2,4.9,0.7c3.2-6.1,9.7-10.3,17-10.3c8.9,0,16.4,6,18.6,14.2c1.6-0.9,3.4-1.3,5.4-1.3c5.5,0,10.2,3.7,11.6,8.8h3.1
			C544.1,357.3,546.1,359.3,546.1,361.9z"/>
		<path fill="#E3AFBC" d="M384.6,373.3c0,1.2-0.5,2.4-1.3,3.3s-2,1.3-3.3,1.3h-99.6c-2.6,0-4.7-2.1-4.7-4.7c0-1.2,0.5-2.4,1.3-3.3
			c0.9-0.9,2-1.3,3.3-1.3h4.7c1.8-4.3,6.1-7.3,11.1-7.3c3.4,0,6.4,1.3,8.6,3.5c2.9-5,8.3-8.3,14.6-8.3c1.7,0,3.3,0.2,4.9,0.7
			c3.2-6.1,9.7-10.3,17-10.3c8.9,0,16.4,6,18.6,14.2c1.6-0.9,3.4-1.3,5.4-1.3c5.5,0,10.2,3.7,11.6,8.8h3.1
			C382.5,368.6,384.6,370.8,384.6,373.3z"/>
	</g>
	<g>
		<g>
			<g>
				<g>
					<path fill="#EE4C7C" d="M556.7,431.8c3.7,0,6.7,3.1,6.7,6.7s-3.1,6.7-6.7,6.7s-6.7-3.1-6.7-6.7
						C549.9,434.8,553,431.8,556.7,431.8z M556.7,433.9c-2.6,0-4.7,2.1-4.7,4.7s2.1,4.7,4.7,4.7c2.6,0,4.7-2.1,4.7-4.7
						C561.3,435.8,559.2,433.9,556.7,433.9z"/>
				</g>
				<g>
					<path fill="#A34164" d="M549.8,397.8c3.7,0,6.7,3.1,6.7,6.7s-3.1,6.7-6.7,6.7s-6.7-3.1-6.7-6.7
						C543.2,400.8,546.1,397.8,549.8,397.8z M549.8,399.8c-2.6,0-4.7,2.1-4.7,4.7s2.1,4.7,4.7,4.7c2.6,0,4.7-2.1,4.7-4.7
						S552.4,399.8,549.8,399.8z"/>
				</g>
				<g>
					<g>
						<g>
							<path fill="#BF456D" d="M529.5,388.3c0,0.6,0.5,1.1,1.1,1.1h4.7c0.6,0,1.1-0.5,1.1-1.1s-0.5-1.1-1.1-1.1h-4.7
								C530,387.3,529.5,387.8,529.5,388.3z"/>
						</g>
						<g>
							<path fill="#BF456D" d="M521.4,388.3c0,0.6,0.5,1.1,1.1,1.1h4.7c0.6,0,1.1-0.5,1.1-1.1s-0.5-1.1-1.1-1.1h-4.7
								C521.9,387.3,521.4,387.8,521.4,388.3z"/>
						</g>
					</g>
					<g>
						<g>
							<path fill="#BF456D" d="M527.8,381.8v4.2c0,0.6,0.5,1.1,1.1,1.1s1.1-0.5,1.1-1.1v-4.2c0-0.6-0.5-1.1-1.1-1.1
								S527.8,381.3,527.8,381.8z"/>
						</g>
						<g>
							<path fill="#BF456D" d="M527.8,390.8v4.2c0,0.6,0.5,1.1,1.1,1.1s1.1-0.5,1.1-1.1v-4.2c0-0.6-0.5-1.1-1.1-1.1
								S527.8,390,527.8,390.8z"/>
						</g>
					</g>
				</g>
				<g>
					<g>
						<g>
							<g>
								<path fill="#A34164" d="M537.1,424.1c0,0.6,0.5,1.1,1.1,1.1h4.7c0.6,0,1.1-0.5,1.1-1.1s-0.5-1.1-1.1-1.1h-4.7
									C537.6,423,537.1,423.5,537.1,424.1z"/>
							</g>
							<g>
								<path fill="#A34164" d="M529,424.1c0,0.6,0.5,1.1,1.1,1.1h4.7c0.6,0,1.1-0.5,1.1-1.1s-0.5-1.1-1.1-1.1H530
									C529.4,423,529,423.5,529,424.1z"/>
							</g>
						</g>
						<g>
							<g>
								<path fill="#A34164" d="M535.4,417.6v4.2c0,0.6,0.5,1.1,1.1,1.1s1.1-0.5,1.1-1.1v-4.2c0-0.6-0.5-1.1-1.1-1.1
									C535.7,416.5,535.4,417,535.4,417.6z"/>
							</g>
							<g>
								<path fill="#A34164" d="M535.4,426.4v4.2c0,0.6,0.5,1.1,1.1,1.1s1.1-0.5,1.1-1.1v-4.2c0-0.6-0.5-1.1-1.1-1.1
									C535.7,425.3,535.4,425.8,535.4,426.4z"/>
							</g>
						</g>
					</g>
				</g>
			</g>
		</g>
		<g>
			<g>
				<g>
					<path fill="#BF456D" d="M87,423.8c0,3.7-3.1,6.7-6.7,6.7c-3.7,0-6.7-3.1-6.7-6.7s3.1-6.7,6.7-6.7C84.1,417.1,87,420.3,87,423.8
						z M84.9,423.8c0-2.6-2.1-4.7-4.7-4.7s-4.7,2.1-4.7,4.7s2.1,4.7,4.7,4.7S84.9,426.3,84.9,423.8z"/>
				</g>
				<g>
					<g>
						<path fill="#EE4C7C" d="M115.7,382c0.9,3.5-1.3,7.2-4.9,8.1c-3.5,0.9-7.2-1.3-8.1-4.9c-0.9-3.5,1.3-7.2,4.9-8.1
							S114.8,378.4,115.7,382z M113.6,382.5c-0.6-2.4-3.1-3.9-5.5-3.4c-2.4,0.6-3.9,3.1-3.4,5.5c0.6,2.4,3.1,3.9,5.5,3.4
							C112.7,387.3,114.2,384.9,113.6,382.5z"/>
					</g>
				</g>
				<g>
					<g>
						<g>
							<path fill="#A34164" d="M108.1,415.1c-0.6,0-1.1,0.5-1.1,1.1v4.7c0,0.6,0.5,1.1,1.1,1.1s1.1-0.5,1.1-1.1v-4.7
								C109.2,415.6,108.7,415.1,108.1,415.1z"/>
						</g>
						<g>
							<path fill="#A34164" d="M108.1,407.1c-0.6,0-1.1,0.5-1.1,1.1v4.7c0,0.6,0.5,1.1,1.1,1.1s1.1-0.5,1.1-1.1v-4.7
								C109.2,407.5,108.7,407.1,108.1,407.1z"/>
						</g>
					</g>
					<g>
						<g>
							<path fill="#A34164" d="M114.6,413.4h-4.2c-0.6,0-1.1,0.5-1.1,1.1s0.5,1.1,1.1,1.1h4.2c0.6,0,1.1-0.5,1.1-1.1
								S115.2,413.4,114.6,413.4z"/>
						</g>
						<g>
							<path fill="#A34164" d="M105.8,413.4h-4.2c-0.6,0-1.1,0.5-1.1,1.1s0.5,1.1,1.1,1.1h4.2c0.6,0,1.1-0.5,1.1-1.1
								C106.7,413.9,106.4,413.4,105.8,413.4z"/>
						</g>
					</g>
				</g>
				<g>
					<g>
						<g>
							<g>
								<path fill="#A34164" d="M84.8,399.3c-0.6,0-1.1,0.5-1.1,1.1v4.7c0,0.6,0.5,1.1,1.1,1.1s1.1-0.5,1.1-1.1v-4.7
									C85.8,399.8,85.3,399.3,84.8,399.3z"/>
							</g>
							<g>
								<path fill="#A34164" d="M84.8,391.1c-0.6,0-1.1,0.5-1.1,1.1v4.7c0,0.6,0.5,1.1,1.1,1.1s1.1-0.5,1.1-1.1v-4.7
									C85.8,391.6,85.3,391.1,84.8,391.1z"/>
							</g>
						</g>
						<g>
							<g>
								<path fill="#A34164" d="M91.3,397.5h-4.2c-0.6,0-1.1,0.5-1.1,1.1s0.5,1.1,1.1,1.1h4.2c0.6,0,1.1-0.5,1.1-1.1
									C92.3,398,91.8,397.5,91.3,397.5z"/>
							</g>
							<g>
								<path fill="#A34164" d="M82.4,397.5h-4.2c-0.6,0-1.1,0.5-1.1,1.1s0.5,1.1,1.1,1.1h4.2c0.6,0,1.1-0.5,1.1-1.1
									S83,397.5,82.4,397.5z"/>
							</g>
						</g>
					</g>
				</g>
			</g>
		</g>
	</g>
	<g>
		<rect x="293" y="661.9" fill="#720738" width="56.5" height="108.3"/>
		<path fill="#720738" d="M414.9,771.7H227.8v-3.4c0-12.6,10.3-22.9,22.9-22.9h141.2c12.6,0,22.9,10.3,22.9,22.9v3.4H414.9z"/>
		<polygon fill="#47041C" points="349.6,665.3 293,676 293,661.9 349.6,661.9 		"/>
		<g>
			<path fill="#720738" d="M508.7,414.3v240.5c0,4-3.3,7.3-7.3,7.3h-365c-4,0-7.3-3.3-7.3-7.3V414.3c0-4,3.3-7.3,7.3-7.3h365
				C505.4,407,508.7,410.2,508.7,414.3z"/>
			<path fill="#FFFFFF" d="M498.8,424.4v219.8c0,4-3.3,7.3-7.3,7.3H146.6c-0.9,0-1.7-0.1-2.6-0.5c-2.8-1-4.8-3.8-4.8-7V424.4
				c0-4,3.3-7.3,7.3-7.3h344.7c1,0,2,0.2,2.8,0.5C496.8,418.8,498.8,421.4,498.8,424.4z"/>
			<g>
				<path fill="#E3E3FF" d="M498.8,424.4v10.9H139.3v-10.9c0-4,3.3-7.3,7.3-7.3h344.7C495.5,417.1,498.8,420.4,498.8,424.4z"/>
				<path fill="#FFFFFF" d="M188,426.4L188,426.4c0,1.3,1.1,2.4,2.4,2.4h242.8c1.3,0,2.4-1.1,2.4-2.4l0,0c0-1.3-1.1-2.4-2.4-2.4
					H190.5C189.1,423.9,188,425,188,426.4z"/>
				<g>
					<path fill="#720738" d="M160.3,426.4v1.8c0,0.5-0.6,0.9-1,0.6l-1.6-0.9l-1.6-0.9c-0.5-0.2-0.5-0.9,0-1.1l1.6-0.9l1.6-0.9
						c0.5-0.2,1,0.1,1,0.6V426.4z"/>
					<path fill="#720738" d="M168.4,426.4v1.8c0,0.5,0.6,0.9,1,0.6l1.6-0.9l1.6-0.9c0.5-0.2,0.5-0.9,0-1.1L171,425l-1.6-0.9
						c-0.5-0.2-1,0.1-1,0.6V426.4z"/>
				</g>
				<g>
					<circle fill="#A34164" cx="467" cy="426.3" r="3.5"/>
					<circle fill="#BF456D" cx="453.6" cy="426.3" r="3.5"/>
					<circle fill="#EE4C7C" cx="480.3" cy="426.3" r="3.5"/>
				</g>
			</g>
		</g>
		<g>
			<rect x="155.3" y="459.6" fill="#E3E3FF" width="30.6" height="138.6"/>
			<rect x="155.3" y="459.6" fill="#720738" width="30.6" height="9.2"/>
		</g>
		<g>
			<rect x="455.2" y="529.9" fill="#E3E3FF" width="30.6" height="68.2"/>
			<rect x="455.2" y="529.9" fill="#720738" width="30.6" height="9.8"/>
		</g>
		<g>
			<rect x="455.9" y="460.1" fill="#E3E3FF" width="30.6" height="39.8"/>
			<rect x="455.9" y="460.1" fill="#720738" width="30.6" height="9.8"/>
		</g>
		<g>
			<g>
				<g>
					<g>
						<rect x="199.8" y="460.1" fill="#E3E3FF" width="243.3" height="138.1"/>
						<g>
							<rect x="309.3" y="498.5" fill="#BF456D" width="75.2" height="75.2"/>
							<circle fill="#EE4C7C" cx="284.1" cy="524.6" r="37.5"/>
							<polygon fill="#A34164" points="299.3,586.3 255.9,586.3 277.6,548.8 299.3,511.1 321.1,548.8 342.7,586.3 							"/>
						</g>
						<rect x="199.8" y="460.1" fill="#720738" width="243.3" height="11.9"/>
					</g>
				</g>
			</g>
			<g>
				<g>
					<path fill="#720738" d="M236.8,589.4c-0.4,0-0.6-0.2-0.6-0.6V479.9c0-0.4,0.2-0.6,0.6-0.6s0.6,0.2,0.6,0.6v108.9
						C237.5,589.3,237.1,589.4,236.8,589.4z"/>
				</g>
				<circle fill="#720738" cx="236.8" cy="480.1" r="1.7"/>
				<circle fill="#720738" cx="236.8" cy="588.8" r="1.7"/>
			</g>
			<g>
				<g>
					<path fill="#720738" d="M405.6,589.4c-0.4,0-0.6-0.2-0.6-0.6V479.9c0-0.4,0.2-0.6,0.6-0.6s0.6,0.2,0.6,0.6v108.9
						C406.2,589.3,406,589.4,405.6,589.4z"/>
				</g>
				<circle fill="#720738" cx="405.6" cy="480.1" r="1.7"/>
				<circle fill="#720738" cx="405.6" cy="588.8" r="1.7"/>
			</g>
		</g>
	</g>
	<g>
		<g>
			<g>
				<g>
					<path fill="#F5AB86" d="M47.9,727.9l-7.1,9.2c0,0,1.3,4,6.6,7.2l8.4-10.5L47.9,727.9z"/>
					<g>
						<g>
							<path fill="#EE4C7C" d="M46.1,741.5c0,0,3.3-0.7,4.4,0.4c1.1,1.1,4,16.2,6.6,19.3c2.7,3.3,0,5-1.7,5.8
								c-1.6,0.6-25.2-21.9-25.2-21.9s5.9-7.7,8.6-9.2C41.9,734.2,43.1,739.9,46.1,741.5z"/>
						</g>
						<g>
							<g>
								<path fill="#FFFFFF" d="M46.6,749.8c-0.1,0-0.2-0.1-0.4-0.4s0-0.6,0.4-0.7c0.1,0,2.6-0.9,4.4-0.5c2.6,0.6,3.1,2.7,3.1,2.7
									c0.1,0.4-0.1,0.6-0.5,0.7c-0.4,0.1-0.6-0.1-0.7-0.4c0,0-0.4-1.5-2.2-2c-1.6-0.4-3.7,0.4-3.8,0.4
									C47,749.8,46.8,749.8,46.6,749.8z"/>
							</g>
							<g>
								<path fill="#FFFFFF" d="M46.4,747.5c-0.1,0-0.2-0.1-0.4-0.4c-0.1-0.2,0-0.6,0.4-0.7c0.1,0,2.6-0.9,4.4-0.5
									c2.6,0.6,3.1,2.7,3.1,2.7c0.1,0.4-0.1,0.6-0.5,0.7c-0.4,0.1-0.6-0.1-0.7-0.4c0,0-0.4-1.5-2.2-2c-1.6-0.4-3.7,0.4-3.8,0.4
									C46.6,747.5,46.5,747.5,46.4,747.5z"/>
							</g>
							<g>
								<path fill="#FFFFFF" d="M47.6,752.2c-0.1,0-0.2-0.1-0.4-0.4c-0.1-0.2,0-0.6,0.4-0.7c0.1,0,2.6-0.9,4.4-0.5
									c2.6,0.6,3.1,2.7,3.1,2.7c0.1,0.4-0.1,0.6-0.5,0.7c-0.4,0.1-0.6-0.1-0.7-0.4c0,0-0.4-1.5-2.2-2c-1.6-0.4-3.7,0.4-3.8,0.4
									C47.9,752.2,47.7,752.2,47.6,752.2z"/>
							</g>
						</g>
					</g>
				</g>
				<g>
					<path fill="#5D001E" d="M92.7,604l-6.4,60.8c0,0-8.4,10-14.6,21.2c-5.1,9.4-27.1,42.8-27.1,42.8l10.5,8.6l54.6-61.3l12.1-72.7
						L92.7,604z"/>
				</g>
			</g>
			<g>
				<g>
					<path fill="#F5AB86" d="M102.7,745.4l1.1,11.8c0,0,3.8,2.3,9.9,1.2l-1.1-13.7L102.7,745.4z"/>
					<g>
						<g>
							<path fill="#EE4C7C" d="M111.5,756.8c0,0,2.1-2.8,3.8-2.8c1.7,0.1,14.8,10.2,19.2,11c4.4,0.7,3.7,4,2.8,5.8
								c-0.7,1.7-35.3,0.7-35.3,0.7s-1.2-11.1-0.2-14.3C102.8,753.9,108.1,757.5,111.5,756.8z"/>
						</g>
						<g>
							<g>
								<path fill="#FFFFFF" d="M118.2,762.9c-0.1,0-0.4,0-0.5,0c-0.2-0.1-0.4-0.5-0.2-0.7c0-0.1,1.2-2.4,2.9-3.4
									c2.2-1.3,4.2-0.1,4.2-0.1c0.2,0.1,0.4,0.5,0.1,0.9c-0.1,0.2-0.5,0.4-0.9,0.1c0,0-1.3-0.9-2.9,0.1c-1.3,0.9-2.4,2.9-2.4,2.9
									S118.4,762.8,118.2,762.9z"/>
							</g>
							<g>
								<path fill="#FFFFFF" d="M116.3,761.3c-0.1,0-0.4,0-0.5,0c-0.2-0.1-0.4-0.5-0.2-0.7c0-0.1,1.2-2.4,2.9-3.4
									c2.2-1.3,4.2-0.1,4.2-0.1c0.2,0.1,0.4,0.5,0.1,0.9c-0.1,0.2-0.5,0.4-0.9,0.1c0,0-1.3-0.9-2.9,0.1c-1.3,0.9-2.4,2.9-2.4,2.9
									C116.5,761.2,116.4,761.2,116.3,761.3z"/>
							</g>
							<g>
								<path fill="#FFFFFF" d="M120.7,764c-0.1,0-0.4,0-0.5,0c-0.2-0.1-0.4-0.5-0.2-0.7c0-0.1,1.2-2.4,2.9-3.4
									c2.2-1.3,4.2-0.1,4.2-0.1c0.2,0.1,0.4,0.5,0.1,0.9c-0.1,0.2-0.5,0.4-0.9,0.1c0,0-1.3-0.9-2.9,0.1c-1.3,0.9-2.4,2.9-2.4,2.9
									C120.9,763.9,120.8,764,120.7,764z"/>
							</g>
						</g>
					</g>
				</g>
				<g>
					<g>
						<path fill="#720738" d="M59.4,605.8c0,0,12.7,45.4,29.4,70c0,0,2.4,23.9,6.7,36.6c1.8,5.5,6.6,38.7,6.6,38.7l2.1-0.2l1.2-0.1
							l9.1-1.3l-4-78.8l-20-62.2l-25.8-2l-1.3-0.1L59.4,605.8z"/>
					</g>
					<g>
						<path fill="#5D001E" d="M63.2,606.1l28.3,69.8c0,0.1,4.2,19,6.6,32.3c2.1,11.9,5.3,32.4,6,42.6l1.2-0.1
							c-0.9-10.3-3.9-30.5-6.1-42.6c-2.3-13.3-6.6-32.3-6.6-32.4l-28-69.3L63.2,606.1z"/>
					</g>
				</g>
			</g>
			<path fill="#BF456D" d="M120.1,540.6c3.5,13.7,14,23.9,14,23.9c6,3.1,21.9,9.4,27.5,8.6c-0.2-3.8,0.2-6.5,1-11.1
				c-7.6-0.5-21.2-9.4-21.2-9.4c-11.4-22.8-12.5-48-12.5-48C120.7,512.4,120.1,540.6,120.1,540.6z"/>
			<g>
				<g>
					<g>
						<path fill="#EE4C7C" d="M59.6,589.6c0,0.5-0.1,0.9-0.1,1.3c-0.7,7.8-1.2,13.8-1.5,16.8c7.3,2.7,14.7,4.8,22.2,6
							c0.4,0,0.6,0.1,1,0.1c0.1,0,0.4,0,0.5,0.1c0.4,0.1,0.9,0.1,1.2,0.2c0.5,0.1,0.9,0.1,1.3,0.2c5.1,0.7,10.2,1.1,15.3,1.1
							c1.1,0,2.1,0,3.1,0c0.1,0,0.1,0,0.2,0c0.2,0,0.5,0,0.9,0c0.1,0,0.4,0,0.5,0c6-0.1,12.1-0.7,18.1-1.8c0.1-1.3,0.4-3.3,0.6-5.9
							c0-0.5,0.1-1,0.1-1.5l0,0c0.4-3.5,0.7-8.1,1.1-13.1c0-0.5,0.1-0.9,0.1-1.3c0.2-3.4,0.6-7,0.9-10.8c0-0.5,0.1-0.9,0.1-1.3
							c0.2-3.9,0.6-7.8,0.9-12c0.2-2.4,0.4-5,0.5-7.5c0.1-2.6,0.4-5.1,0.5-7.6c0-0.6,0.1-1.1,0.1-1.7c1.6-24,2.6-46,1.1-48.6
							c-1-1.8-3.4-4-6.4-6.4c-0.4-0.2-0.7-0.6-1.1-0.9c-1.2-1-11.8-5.6-13.1-6.5l-11.4-1.8c-0.1,0-11.4,2.7-11.4,2.8
							c-0.5,0.2-1,0.5-1.5,0.7c-4.3,2-8.4,4-11,6c-0.4,0.2-0.7,0.5-1,0.9c-0.2,0.2-0.5,0.4-0.6,0.6s-0.4,0.5-0.5,1
							c-1.8,4.9-4.4,24.6-6.7,46c-0.1,1.6-0.4,3.1-0.5,4.7c-0.1,0.7-0.1,1.3-0.2,2.1c0,0.5-0.1,1-0.1,1.5c0,0.2,0,0.5-0.1,0.7
							c-0.1,1.2-0.2,2.3-0.4,3.5c-0.1,0.9-0.1,1.7-0.2,2.6C61.3,570.6,60.3,581,59.6,589.6z"/>
					</g>
				</g>
				<g>
					<g>
						<path fill="#BF456D" d="M87,551.4c5.6,5.4,13.5,10.5,24.1,13.1c0.4,0.1,0.9-0.2,0.9-0.6l0,0c0-0.4-0.2-0.6-0.5-0.7
							c-10.4-2.6-18.1-7.5-23.5-12.9c-0.4-0.4-1.1-0.1-1.1,0.4l0,0C86.8,551,86.9,551.3,87,551.4z"/>
					</g>
					<g>
						<path fill="#BF456D" d="M86.9,540.8L86.9,540.8c0,0.1,0,0.2,0.1,0.4c0.4,0.6,0.9,1.2,1.3,1.8c2.7,3.5,7.7,8.2,16.3,10.2h0.1
							c0.2,0,0.5-0.2,0.6-0.5c0.1-0.4-0.1-0.7-0.5-0.7c-9.3-2.1-14.3-7.5-16.8-11.5C87.8,539.9,86.9,540.3,86.9,540.8z"/>
					</g>
					<g>
						<path fill="#BF456D" d="M86.9,512L86.9,512c0,0.4,0.4,0.6,0.7,0.6c7.6-1.8,13.6-5.5,17.5-8.6c5.4-4.3,8.2-8.3,8.3-8.4
							c0.2-0.2,0.1-0.7-0.1-0.9c-0.2-0.2-0.7-0.1-0.9,0.1c-0.1,0.1-8.9,12.7-25.1,16.5C87.1,511.3,86.9,511.8,86.9,512z"/>
					</g>
				</g>
			</g>
			<g>
				<path fill="#720738" d="M120.3,456.8c0,0,6.6-1.6,6.4-6.7c-0.1-4.3-3.2-2.1-2.4-5.4c0.7-3.3-0.6-6.7-4.5-5.9
					c-2.6,0.6-5.3,1.6-9.7-0.5c-6.4-3.1-8.2,1.3-13.1,1.2c-7.2-0.2-9.4,4-9.5,7.5c-0.2,3.5,2.1,7.8,2.1,7.8L120.3,456.8z"/>
				<g>
					<path fill="#F88265" d="M118.2,465c0,0,3.1-3.3,4.8-0.2c1.7,3.2-1.8,11.6-6.6,9.1L118.2,465z"/>
					<g>
						<path fill="#F8664D" d="M117.6,471.3c0.1,0,0.4-0.1,0.4-0.2c1-2.6,3.9-3.4,3.9-3.4c0.2-0.1,0.4-0.2,0.2-0.5
							c-0.1-0.2-0.2-0.4-0.5-0.2c-0.1,0-3.3,1-4.5,4C117.3,470.8,117.4,471.1,117.6,471.3L117.6,471.3z"/>
					</g>
					<g>
						<path fill="#F8664D" d="M120.6,470.1c0.1,0,0.1,0,0.2,0c0.2-0.1,0.2-0.4,0.1-0.6c0,0-0.5-0.9-1.5-1.3c-0.2-0.1-0.5,0-0.6,0.1
							c-0.1,0.2,0,0.5,0.1,0.6c0.7,0.5,1.1,1.1,1.1,1.1C120.3,470,120.4,470.1,120.6,470.1z"/>
					</g>
				</g>
				<g>
					<path fill="#F88265" d="M90.6,462.5c0,0-2.3-3.8-4.7-1.1c-2.3,2.8-0.2,11.8,4.9,10L90.6,462.5z"/>
					<g>
						<path fill="#F8664D" d="M90,468.8c-0.1,0-0.4-0.1-0.4-0.4c-0.5-2.8-3.2-4.2-3.2-4.2c-0.2-0.1-0.2-0.4-0.2-0.6
							c0.1-0.2,0.4-0.2,0.6-0.2c0.1,0.1,3.1,1.6,3.7,4.8C90.5,468.4,90.2,468.6,90,468.8L90,468.8z"/>
					</g>
					<g>
						<g>
							<path fill="#F8664D" d="M87.3,467c-0.1,0-0.1,0-0.2-0.1s-0.2-0.4-0.1-0.6c0,0,0.6-0.7,1.7-1.1c0.2-0.1,0.5,0,0.5,0.2
								c0.1,0.2,0,0.5-0.2,0.5c-0.9,0.2-1.2,0.9-1.2,0.9C87.5,467,87.4,467,87.3,467z"/>
						</g>
					</g>
				</g>
				<path fill="#F5AB86" d="M96.2,479.5l-0.7,8.7c0,0,2.2,4.7,5.6,5.3s7-3.2,7-3.2l0.9-9.1L96.2,479.5z"/>
				<path fill="#F88265" d="M96.2,479.5l-0.4,3.9c2.1,2.8,6.2,3.9,12.5,3.5l0.5-5.6L96.2,479.5z"/>
				<path fill="#F5AB86" d="M89.1,456.3c-0.1,3.4-0.2,7.6,0.1,11.1l0,0l0,0l0,0c0.1,0.9,0.2,1.6,0.4,2.3c0.1,0.4,0.1,0.9,0.2,1.3
					c1.5,6.6,5.4,16.4,17.7,13.2c5.3-1.3,8.3-6.4,10.2-11.9c0.1-0.4,0.2-0.6,0.4-1c0.1-0.2,0.1-0.4,0.2-0.6l0.1-0.2v-0.1l0,0
					c1.2-4.3,1.7-8.7,2-11.9c0.3-3.2-1.2-6.4-3.9-8.2c-7.2-5-15.3-4.2-20.7-2.6C91.9,449,89.4,452.3,89.1,456.3z"/>

					<ellipse transform="matrix(-0.9959 -9.081201e-002 9.081201e-002 -0.9959 154.6164 934.1555)" fill="#720738" cx="98.6" cy="463.6" rx="1.1" ry="1.7"/>

					<ellipse transform="matrix(-0.9959 -9.082197e-002 9.082197e-002 -0.9959 180.4285 937.7368)" fill="#720738" cx="111.6" cy="464.8" rx="1.1" ry="1.7"/>
				<path fill="#720738" d="M94.5,457.9c0,0,4.4-1.8,7.8-0.5l-0.2,2c0,0-5-0.4-7.5,0.7C94.2,459.3,94.2,458.6,94.5,457.9z"/>
				<path fill="#720738" d="M115.7,459.6c0,0-4.2-2.4-7.7-1.5v2c0,0,5,0.4,7.5,1.7C115.7,461.3,115.8,460.4,115.7,459.6z"/>
				<g>
					<path fill="#F88265" d="M103.6,471.6c-0.7-0.1-1.3-0.4-1.5-0.5s-0.2-0.4-0.1-0.6s0.4-0.2,0.6-0.1c0.4,0.2,1.2,0.5,1.6,0.4
						c0.1,0,0.2-0.1,0.2-0.4c0.2-1.5,0.4-6.2,0.4-6.4c0-0.2,0.2-0.4,0.4-0.4c0.2,0,0.4,0.2,0.4,0.4s0,5-0.4,6.5
						c-0.1,0.6-0.5,0.9-0.7,1C104.2,471.6,103.9,471.6,103.6,471.6z"/>
				</g>
				<path fill="#FFFFFF" d="M108.4,475.1c-0.5,1.6-1.7,4.4-5.3,4c-3.5-0.4-4.3-3.1-4.4-4.9L108.4,475.1z"/>
				<path fill="#720738" d="M89,455.6c-0.1,3.4-0.2,7.6,0.1,11.1H91c0,0-0.2-2.9-0.2-4.8s-0.1-5.4,1.6-5.6c1.6-0.2,1.1-4.3,3.4-5.9
					c2.3-1.5,7.4-1.6,10.5,0.7c3.1,2.3,7.1,0.5,8.4,1c1.5,0.5,3.3,2.7,2.6,4.7c-0.7,1.8,0.9,3.2,1,5.3c0.2,2.1-1.6,7.3-1.6,7.3
					l1.8,0.5c1.2-4.3,1.6-8.7,1.9-11.9c0.6-8.7-1.2-7.3-4-9.1c-7.3-5-15.5-3.3-21-1.7C91.9,448.3,89.3,451.6,89,455.6z"/>
				<g>
					<g>
						<path fill="#FFFFFF" d="M107,465.3c0.2-2.7,2.7-4.8,5.4-4.5c2.7,0.2,4.8,2.7,4.5,5.4c-0.2,2.7-2.7,4.8-5.4,4.5
							C108.8,470.5,106.7,468,107,465.3z M107.8,465.3c-0.2,2.3,1.5,4.4,3.8,4.7c2.3,0.2,4.4-1.5,4.7-3.8c0.2-2.3-1.5-4.4-3.8-4.7
							C110,461.3,108,463,107.8,465.3z"/>
					</g>
					<g>
						<path fill="#FFFFFF" d="M93.4,464c0.2-2.7,2.7-4.8,5.4-4.5c2.7,0.2,4.8,2.7,4.5,5.4c-0.2,2.7-2.7,4.8-5.4,4.5
							C95.1,469.1,93.1,466.8,93.4,464z M94.1,464.1c-0.2,2.3,1.5,4.4,3.8,4.7c2.3,0.2,4.4-1.5,4.7-3.8c0.2-2.3-1.5-4.4-3.8-4.7
							C96.5,460.1,94.4,461.8,94.1,464.1z"/>
					</g>
					<g>
						<path fill="#FFFFFF" d="M120,462.3c0.2,0.2,0,0.7-0.1,0.9c-1.8,0.2-3.2,1.2-3.2,1.2c-0.1,0.1-0.1,0.1-0.2,0.1s-0.2,0-0.2-0.1
							c-0.1-0.1-0.1-0.4,0-0.5C116.2,463.8,117.7,462.4,120,462.3z"/>
					</g>
					<g>
						<path fill="#FFFFFF" d="M94.6,462.3c-0.1,0.1-0.2,0.1-0.4,0.1c-0.1,0-0.1,0-0.2-0.1c0,0-2.6-2-5-2.3c-0.2-0.2-0.2-0.5,0-0.7
							c2.7,0.2,5.4,2.3,5.5,2.4C94.7,461.9,94.7,462.1,94.6,462.3z"/>
					</g>
					<g>
						<path fill="#FFFFFF" d="M103.2,463.8c0,0,1.1-1.2,2.2-1.1c1.2,0.1,2,1.5,2,1.5l0.7-0.4c0-0.1-1-1.7-2.6-1.8
							c-1.6-0.1-2.8,1.2-2.9,1.3L103.2,463.8z"/>
					</g>
				</g>
			</g>
			<g>
				<g>
					<path fill="#A34164" d="M79.6,607.4l-2.2-4.4c-1.7-3.7-0.2-8,3.3-9.7l125.6-61.1l8.6,17.5l-125.6,61
						C85.7,612.6,81.3,611,79.6,607.4z"/>

						<rect x="213.8" y="520.1" transform="matrix(0.4375 0.8992 -0.8992 0.4375 606.5106 99.6626)" fill="#EE4C7C" width="19.5" height="29.1"/>
					<path fill="#FFFFFF" d="M266.7,532c-6.9,4-15.4,6.4-25.7,4.9l-8.6-17.5c0,0,6.7-11.6,17.4-14.2c2.3-0.6,4.4-0.9,6.2-0.9l0,0
						c14.4-0.4,12.4,13.3,34.3-2.2C290.3,502.3,283.4,522.1,266.7,532z"/>
					<path fill="#A34164" d="M266.7,532c-7.3-1.1-6.9-13.7-5.6-18.6c1.6-5.9-4.9-9.1-5.1-9.2c14.4-0.4,12.4,13.3,34.3-2.2
						C290.3,502.3,283.4,522.1,266.7,532z"/>
				</g>
			</g>
			<g>
				<g>
					<path fill="#F5AB86" d="M102.1,585.4l1.8,0.9c1.6,0.7,3.3,0.4,4.7-0.7c0.6-0.5,1.6-1.5,2.1-1.7c1.3-0.7,4.5-1.6,5.4-1.2
						c0.9,0.4,0,1.8-1,2.3c-1,0.4-2.3,0.9-3.3,1.6s2.8,5,4.5,6.4c1.7,1.3,5.6,1.8,5.1,3.7c-0.4,1.7-3.1,0.9-3.1,0.9s0.1,1.8-2.6,2
						c0,0-0.2,1.6-2,1.7c0,0-0.6,1.8-2.4,1.6s-7.3-1.1-14.3-11.4L102.1,585.4z"/>
				</g>
				<path fill="#BF456D" d="M102.7,584.4c0,0-25.7-21.1-33.9-32.2c0,0,1.5-13.2,3.1-23.9c1.1-6.9,1.3-13.8,1-20.7
					c-0.2-3.9-0.7-7.6-1.6-9.9c0,0-7.5,2.2-12.4,27.1c-2.7,13.6-3.7,24.2-4.2,29.9c-0.2,2.8,0.6,5.6,2.4,7.8
					c5.5,7,19.1,22,39.2,29.3C96.2,591.8,101.6,587.8,102.7,584.4z"/>
			</g>
			<path fill="#F5AB86" d="M178.6,565c0,0-3.9-3.2-6.4-3.1c-2.3,0.1,2.2,5.3,2.2,5.3s-5.6-6.1-7.3-5.1c-1.7,1.1,3.5,7.2,3.5,7.2
				s-4.4-3.5-5.9-2.9c-1.5,0.7,2.3,5.4,2.3,5.4s-3.8-2.4-4.9-2.1s1.5,4.7,3.5,6.4c2.1,1.6,3.7-1.6,3.7-1.6s2.9-1.2,3.1-2.6
				c0,0,2.8-0.7,3.5-2.2C176.1,569.5,180.4,567.8,178.6,565z"/>
		</g>
	</g>
	<g>
		<g>
			<g>
				<g>

						<rect x="435.7" y="654.1" transform="matrix(-0.1028 -0.9947 0.9947 -0.1028 -77.5513 1261.8152)" fill="#BF456D" width="189.2" height="23.6"/>
					<g>

							<rect x="428.7" y="665.8" transform="matrix(-0.1028 -0.9947 0.9947 -0.1028 -85.9437 1255.6674)" fill="#A34164" width="189.2" height="1.6"/>

							<rect x="435.7" y="665.1" transform="matrix(-0.1028 -0.9947 0.9947 -0.1028 -77.5512 1261.8162)" fill="#A34164" width="189.2" height="1.6"/>

							<rect x="442.6" y="664.4" transform="matrix(-0.1028 -0.9947 0.9947 -0.1028 -69.2106 1267.8879)" fill="#A34164" width="189.2" height="1.6"/>
					</g>
				</g>
				<g>

						<rect x="534.5" y="743.3" transform="matrix(-0.1028 -0.9947 0.9947 -0.1028 -156.2254 1369.3311)" fill="#720738" width="9.9" height="23.6"/>
				</g>
				<path fill="#EE4C7C" d="M528.3,761.2l0.2,2.8c0.6,6.5,6.5,11.1,13,10.5l0,0c6.5-0.6,11.1-6.5,10.5-13l-0.2-2.8L528.3,761.2z"/>
				<g>
					<polygon fill="#F5AB86" points="532.3,570.6 508.8,573 514.2,556.5 515.3,553.1 518.4,543.4 523.1,552.8 525,556.3 					"/>
					<path fill="#720738" d="M523.1,552.8c-1,0.5-2.2,0.7-3.7,1c-1.7,0.1-3.2-0.1-4.2-0.5l3.2-9.7L523.1,552.8z"/>
				</g>
			</g>
		</g>
	</g>
	<g>
		<path fill="#BF456D" d="M371.6,362.6c0,0-6.7,30.7-15.4,40.6h12.7c0,0,9.2-7,9.5-17.7S371.6,362.6,371.6,362.6z"/>
		<path fill="#720738" d="M405.5,352.5c-8.3,2.9-16.8,5.9-25.1,8.6c-4.3,1.5-8.9-0.7-10.6-4.9c0,0,0,0,0-0.1
			c-2.8-6.6-8.6-14.2-9.8-17.6l0,0c-0.2-0.6-0.5-1.1-0.7-1.7c-3.1-8.2-3.3-25.1,15.4-29c0,0,15.4-3.5,22.3,10.3
			c0,0,3.1,6.5,5.3,11.1c2.4,5.4,4.4,7.1,6.1,8.3c5.4,4.2,4,12.6-2.4,14.9C405.8,352.5,405.6,352.5,405.5,352.5z"/>
		<g>
			<g>
				<path fill="#EE4C7C" d="M373.8,373.4c-0.5,4.3-1.8,8.7,0,15.7c0.6,2.2,1.5,3.9,3.2,7c0.1,0.1,0.1,0.4,0.2,0.5
					c0,0.2,0.1,0.6,0.1,0.9c1.1,7.7,0.9,3.7,0.7,9.9h39.8l-1-50.1l-12.5-1l0,0l-2.2-0.2H402l-3.4-0.2c-0.2,0-0.6,0-0.9-0.1
					c-4.5-0.2-9.2,0.5-13.3,2.1h-0.1l-1.8,0.7h-0.1l-1.8,0.7l-8.8,3.4C372.1,364.8,373.4,371.4,373.8,373.4z"/>
			</g>
			<g>
				<g>
					<path fill="#BF456D" d="M377.2,396.5c0,0.2,0.1,0.6,0.1,0.9c2.2,0.5,9.1,1.5,20.7-1.3c1.5-0.4,3.1-0.7,4.8-1.2
						c0.4-0.1,0.5-0.5,0.5-0.9c-0.1-0.4-0.5-0.5-0.9-0.5c-16.8,5-25.3,2.4-25.5,2.4l0,0C377.1,396.3,377.2,396.4,377.2,396.5z"/>
				</g>
			</g>
		</g>
		<g>
			<g>
				<g>
					<path fill="#F88265" d="M366.3,337.3c0,0-3.7-2.3-4.7,1s4.5,10.3,8.6,6.7L366.3,337.3z"/>
					<circle fill="#FFFFFF" cx="367.1" cy="345.5" r="0.9"/>
					<g>
						<g>
							<path fill="#F8664D" d="M368.3,342.9c-0.1,0-0.4,0-0.5-0.1c-1.6-2.2-4.7-2.2-4.7-2.2c-0.2,0-0.4-0.1-0.4-0.4s0.2-0.4,0.4-0.4
								c0.1,0,3.4,0,5.3,2.6C368.7,342.6,368.5,342.8,368.3,342.9L368.3,342.9z"/>
						</g>
					</g>
					<g>
						<path fill="#F8664D" d="M365.1,342.8c-0.1,0-0.1,0-0.2,0c-0.2,0-0.4-0.2-0.2-0.5c0,0,0.2-0.9,1.1-1.7c0.1-0.1,0.5-0.1,0.6,0
							s0.1,0.4,0,0.6c-0.6,0.6-0.9,1.2-0.9,1.2C365.4,342.6,365.2,342.8,365.1,342.8z"/>
					</g>
				</g>
				<path fill="#F5AB86" d="M391.8,346.8l3.4,9.7c0,0-3.3,5.1-6.6,6.6c-3.4,1.6-6.1-2.2-6.1-2.2l-3.2-9.1L391.8,346.8z"/>
				<path fill="#F88265" d="M392.2,347.8l1.3,3.9c-1.5,3.4-5.3,5.9-11.8,7.2l-2.1-5.9L392.2,347.8z"/>
				<path fill="#F5AB86" d="M366.1,341.6c0.5,0.9,1,1.8,1.5,2.7c3.3,5.9,9.8,11.3,15.2,10.6c11.8-1.5,13.2-11.5,12.7-18.5
					c0-0.7-0.7-1.5-0.9-2.3c-0.4-2.1-0.4-4.7-1-6.9c-0.4-1.6-0.9-3.1-1.3-4.5c-1.2-3.9-4.7-6.6-8.6-6.7c-5.8-0.2-13.8,1-19.5,7.7
					c-2.1,2.4-2.7,6-1.7,9.2C363.3,335.3,364.5,338.4,366.1,341.6z"/>
				<g>
					<path fill="#F88265" d="M381,341.8c0.2-0.1,0.4-0.2,0.2-0.5c0-0.2-0.2-0.4-0.5-0.4l-1.6,0.2l0.1-6c0-0.2-0.2-0.5-0.5-0.5
						c-0.2,0-0.5,0.2-0.5,0.5l-0.1,7.1L381,341.8L381,341.8z"/>
				</g>
				<path fill="#720738" d="M366.5,329.5c-3.5,3.4-0.4,8-1,11c0,0.2-0.1,0.2-0.2,0.2c-1.6-3.2-2.8-6.4-3.7-8.9
					c-1.1-3.2-0.4-6.9,1.8-9.4c6-7,14.6-8.2,20.6-8.1c4.2,0.1,7.7,2.8,8.9,6.9c0.4,1.3,0.9,2.9,1.3,4.5c-0.6,0.6-2.2,1.5-1.8,2.7
					c0.9,3.1,1.5,5.1,0.7,5.3c-1.2,0.1-3.1-3.3-2.7-6.1c0,0-1.6-1.2-6-1.3c-5.8-0.1-11.8-1.3-11.8-1.3s-2.3-0.5-3.5-1.5
					C369.3,323.3,369.2,326.8,366.5,329.5z"/>

					<ellipse transform="matrix(0.9417 -0.3364 0.3364 0.9417 -91.5899 144.9658)" fill="#720738" cx="372.6" cy="336.8" rx="1.1" ry="1.8"/>

					<ellipse transform="matrix(0.9417 -0.3363 0.3363 0.9417 -89.5028 148.5677)" fill="#720738" cx="384.1" cy="332.7" rx="1.1" ry="1.8"/>
				<path fill="#720738" d="M368.1,333.4c0.9-0.5,2.4-1.3,4.3-2c0.5-0.1,1,0.1,1.1,0.5l0,0c0,0.4-0.2,0.6-0.6,0.7
					c-1.3,0.4-4.7,1.6-6,2.6c-0.1-0.2,0-0.5,0.1-0.7C367.2,334,367.6,333.8,368.1,333.4z"/>
				<path fill="#720738" d="M385.3,327.5c-1,0.1-2.8,0.5-4.7,1.1c-0.5,0.2-0.7,0.7-0.5,1.1l0,0c0.1,0.2,0.6,0.4,1,0.2
					c1.2-0.5,4.5-1.6,6.2-1.7c0-0.2-0.2-0.4-0.6-0.6S385.9,327.4,385.3,327.5z"/>
				<path fill="#FFFFFF" d="M377.2,345.9c0.9,1.3,2.8,3.7,6.4,2.4c3.5-1.2,3.5-4,3.3-5.9L377.2,345.9z"/>
				<g>
					<path fill="#F88265" d="M384.5,350.9c-1,0.4-2.1,0.1-2.2,0.1c-0.2,0-0.4-0.2-0.4-0.5s0.2-0.4,0.5-0.4l0,0c0,0,0.9,0.1,1.7-0.1
						c0.9-0.2,1.5-1,1.5-1c0.1-0.2,0.5-0.2,0.6-0.1c0.2,0.1,0.2,0.5,0.1,0.6C386.3,349.8,385.6,350.5,384.5,350.9z"/>
				</g>
			</g>
			<g>
				<path fill="#F5AB86" d="M392.4,328c0,0,1.7-4.7,4.4-2.7c2.7,2,2.9,10.5-2,10.2L392.4,328z"/>
				<circle fill="#FFFFFF" cx="396.7" cy="335" r="0.9"/>
				<g>
					<path fill="#F88265" d="M394.9,332.8c0.1,0,0.2-0.2,0.2-0.4c-0.1-2.6,2-4.4,2-4.4c0.1-0.1,0.1-0.4,0-0.5s-0.4-0.1-0.5,0
						s-2.4,2.1-2.2,5.1C394.4,332.6,394.6,332.8,394.9,332.8L394.9,332.8z"/>
				</g>
				<g>
					<g>
						<path fill="#F88265" d="M396.9,330.8c0.1,0,0.1-0.1,0.1-0.1c0.1-0.1,0.1-0.4-0.1-0.5c0,0-0.7-0.5-1.7-0.6
							c-0.2,0-0.4,0.1-0.4,0.4c0,0.2,0.1,0.4,0.4,0.4c0.9,0.1,1.3,0.5,1.3,0.5C396.7,330.8,396.8,330.8,396.9,330.8z"/>
					</g>
				</g>
			</g>
		</g>
		<g>
			<g>
				<g>
					<path fill="#EE4C7C" d="M476.4,399H337.6l0.4,166.2l132.2-158.8L476.4,399z M358.5,419.8h73.4l-73.3,88L358.5,419.8z"/>
					<g>
						<rect x="339.8" y="531.3" fill="#720738" width="7.1" height="1.6"/>
						<rect x="339.8" y="521.9" fill="#720738" width="7.1" height="1.6"/>
						<rect x="339.8" y="512.3" fill="#720738" width="7.1" height="1.6"/>
						<rect x="339.8" y="502.9" fill="#720738" width="7.1" height="1.6"/>
						<rect x="339.8" y="493.5" fill="#720738" width="7.1" height="1.6"/>
						<rect x="339.7" y="484" fill="#720738" width="7.1" height="1.6"/>
						<rect x="339.7" y="474.5" fill="#720738" width="7.1" height="1.6"/>
						<rect x="339.7" y="465.1" fill="#720738" width="7.1" height="1.6"/>
						<rect x="339.7" y="455.6" fill="#720738" width="7.1" height="1.6"/>
						<rect x="339.7" y="446.3" fill="#720738" width="7.1" height="1.6"/>
						<rect x="339.7" y="436.8" fill="#720738" width="7.1" height="1.6"/>
						<rect x="339.7" y="427.3" fill="#720738" width="7.1" height="1.6"/>
						<rect x="339.5" y="417.8" fill="#720738" width="7.1" height="1.6"/>
						<rect x="339.5" y="408.5" fill="#720738" width="7.1" height="1.6"/>
					</g>
				</g>
				<polygon fill="#BF456D" points="476.4,399 337.7,399 337.7,406.4 470.1,406.4 				"/>
			</g>
		</g>
		<g>
			<path fill="#F5AB86" d="M389.6,416.8l-1.8,0.1c-1.7,0.1-3.1-0.7-3.8-2.2c-0.4-0.6-0.9-1.8-1.2-2.2c-1-1.1-3.4-2.9-4.4-2.9
				c-0.9,0-0.6,1.6,0.1,2.3s1.7,1.6,2.3,2.6c0.6,1-4.2,3.4-6.1,4s-5.5-0.2-5.8,1.5s2.4,1.7,2.4,1.7s-0.6,1.6,1.6,2.6
				c0,0-0.2,1.5,1.2,2.2c0,0,0,1.8,1.6,2.2c1.7,0.4,6.9,1.5,16.4-5.3L389.6,416.8z"/>
			<g>
				<g>
					<g>
						<g>
							<path fill="#BF456D" d="M391.4,424.6c0,0,16.2-0.2,40.5-15.1l3.8-2.4l0,0c0.5-7.5-4.3-20.2-7.6-31.2
								c-2.2-7.3-5.1-16.2-11.1-18.6c-1.1,1.2-3.1,6.5-3.2,9.1c-0.4,6.4,1.5,12.9,2.6,16.4c1.7,5.1,2.9,11.6,4.5,16.8l0.1,0.7
								c-0.2,0-6.6,3.7-15.5,7.7c-9.7,4.4-17.4,8.8-17.4,8.8L391.4,424.6z"/>
						</g>
					</g>
				</g>
			</g>
		</g>
		<path fill="#F5AB86" d="M369.9,399.3c0,0-1.1,4.8-3.1,6.1s-1.3-5.4-1.3-5.4s-0.6,8.1-2.6,8.3c-2,0.2-1.6-7.7-1.6-7.7
			s-1.2,5.4-2.8,5.8c-1.5,0.4-1.5-5.5-1.5-5.5s-1.5,4.2-2.6,4.5s-1.6-4.5-1-7c0.6-2.4,3.7-1,3.7-1s2.9-0.9,3.9,0.1
			c0,0,2.6-1.1,4-0.4C365.2,397.4,369.5,396.3,369.9,399.3z"/>
	</g>
	<g>
		<g>
			<g>
				<path fill="#EE4C7C" d="M491.7,676v32.2H345.9c-4.5,0-8.3-3.7-8.3-8.3v-15.5c0-4.5,3.7-8.3,8.3-8.3h145.8V676z"/>
				<path fill="#FFFFFF" d="M491.7,680.1v24H359.4c-4.3,0-7.7-3.4-7.7-7.7v-8.7c0-4.3,3.4-7.7,7.7-7.7h132.3V680.1z"/>
				<rect x="365.1" y="685" fill="#E3AFBC" width="126.6" height="2.1"/>
				<rect x="365.1" y="691" fill="#E3AFBC" width="126.6" height="2.1"/>
				<rect x="365.1" y="697.1" fill="#E3AFBC" width="126.6" height="2.1"/>
			</g>
			<g>
				<path fill="#BF456D" d="M470,708.2v32.2H324.2c-4.5,0-8.3-3.7-8.3-8.3v-15.5c0-4.5,3.7-8.3,8.3-8.3H470V708.2z"/>
				<path fill="#FFFFFF" d="M470,712.3v24H337.8c-4.3,0-7.7-3.4-7.7-7.7v-8.7c0-4.3,3.4-7.7,7.7-7.7H470V712.3z"/>
				<rect x="343.6" y="717.1" fill="#E3AFBC" width="126.6" height="2.1"/>
				<rect x="343.6" y="723.2" fill="#E3AFBC" width="126.6" height="2.1"/>
				<rect x="343.6" y="729.3" fill="#E3AFBC" width="126.6" height="2.1"/>
			</g>
			<g>
				<path fill="#A34164" d="M498.8,740.4v32.2H353c-4.5,0-8.3-3.7-8.3-8.3v-15.5c0-4.5,3.7-8.3,8.3-8.3h145.8V740.4z"/>
				<path fill="#FFFFFF" d="M498.8,744.5v24H366.5c-4.3,0-7.7-3.4-7.7-7.7v-8.7c0-4.3,3.4-7.7,7.7-7.7h132.3V744.5z"/>
				<rect x="372.2" y="749.3" fill="#E3AFBC" width="126.6" height="2.1"/>
				<rect x="372.2" y="755.4" fill="#E3AFBC" width="126.6" height="2.1"/>
				<rect x="372.2" y="761.5" fill="#E3AFBC" width="126.6" height="2.1"/>
			</g>
		</g>
	</g>
	<g>
		<g>
			<g>
				<path fill="#E3AFBC" d="M256.2,378.8l0.6-7.5l-6.9-0.5c-0.2-1.5-0.7-2.9-1.5-4.3l5.5-4.7L249,356l-5.4,4.5
					c-1.5-1.1-3.1-2-4.8-2.6l0.5-6.9l-7.5-0.6l-0.5,6.5c-2.3,0.2-4.4,1-6.4,2.1l-4.5-5.4l-5.8,4.9l4.7,5.5c-0.9,1.2-1.6,2.6-2.1,4
					l-6.9-0.5l-0.6,7.5l6.5,0.5c0.2,2.3,1,4.4,2.1,6.4l-4.7,4l4.9,5.8l4.8-4.2c1.6,1.1,3.3,2,5.3,2.4l-0.5,6.5l7.5,0.6l0.5-6.9
					c2.1-0.4,4.2-1.2,5.9-2.3l4.5,5.4l5.8-4.9l-5-5.9c0.9-1.3,1.6-2.9,2-4.5L256.2,378.8z M240.3,374.3c-0.2,3.8-3.5,6.6-7.3,6.4
					s-6.6-3.5-6.4-7.3c0.2-3.8,3.5-6.6,7.3-6.4C237.7,367.3,240.6,370.5,240.3,374.3z"/>
				<path fill="#E3E2DF" d="M233.4,362.5c-6.4,0-11.5,5.1-11.5,11.5s5.1,11.5,11.5,11.5s11.5-5.1,11.5-11.5
					C245,367.6,239.8,362.5,233.4,362.5z M240.3,374.3c-0.2,3.8-3.5,6.6-7.3,6.4s-6.6-3.5-6.4-7.3c0.2-3.8,3.5-6.6,7.3-6.4
					C237.7,367.3,240.6,370.5,240.3,374.3z"/>
			</g>
		</g>
		<g>
			<g>
				<path fill="#E3AFBC" d="M552.3,473.9c-1.6,0.5-3.2,1.1-4.5,2l-5.9-5l-4.9,5.6l5.4,4.5c-1.1,1.8-2,3.8-2.3,5.9l-6.9,0.5l0.6,7.5
					l6.5-0.5c0.5,2,1.3,3.7,2.4,5.3l-4.2,4.8l5.8,4.9l4-4.7c2,1.1,4.2,1.8,6.4,2.1l0.5,6.5l7.5-0.6l-0.5-6.9c1.5-0.5,2.8-1.2,4-2.1
					l5.5,4.7l4.9-5.6l-5.4-4.5c1.1-2,1.8-4.2,2.1-6.4l6.5-0.5l-0.6-7.5l-6.9,0.5c-0.6-1.7-1.5-3.3-2.6-4.8l4.5-5.4l-5.6-4.9
					l-4.7,5.5c-1.3-0.6-2.8-1.1-4.3-1.5l-0.5-6.9l-7.5,0.6L552.3,473.9z M563.4,489.6c0.2,3.8-2.6,7.1-6.4,7.3
					c-3.8,0.2-7.1-2.6-7.3-6.4s2.6-7.1,6.4-7.3C559.9,483.1,563.2,485.9,563.4,489.6z"/>
				<path fill="#E3E2DF" d="M556.3,478.5c-6.4,0-11.5,5.1-11.5,11.5s5.1,11.5,11.5,11.5s11.5-5.1,11.5-11.5S562.7,478.5,556.3,478.5
					z M563.4,489.6c0.2,3.8-2.6,7.1-6.4,7.3c-3.8,0.2-7.1-2.6-7.3-6.4s2.6-7.1,6.4-7.3C559.9,483.1,563.2,485.9,563.4,489.6z"/>
			</g>
		</g>
	</g>
	<g>
		<g>
			<g>
				<path fill="#BF456D" d="M194,724.2c0,0-1,1-2.9,1.1c-0.6,0-1.3,0-2.1-0.1c-0.9-0.1-1.8-0.5-2.9-1c0,0,0.5-19.8-7.6-33.4
					c-8-13.6-18.6-32.4-10.2-42.1c8.4-9.7,22.2,3.8,26.6,26.3C199.5,697.6,194,724.2,194,724.2z"/>
			</g>
			<g>
				<path fill="#A34164" d="M191.1,725.3c-0.6,0-1.3,0-2.1-0.1c2.6-35.1-13.3-62.3-13.6-62.5c-0.2-0.5-0.1-1.1,0.4-1.5
					c0.5-0.2,1.1-0.1,1.5,0.4C177.4,661.8,193.6,689.4,191.1,725.3z"/>
			</g>
		</g>
		<g>
			<g>
				<path fill="#BF456D" d="M221.5,692.2c-18.7,30.2-17.4,37.3-17.4,37.3l-2.4-0.5l-2.1-0.4l-2.9-0.5c-1.7-13.5,8.7-70.3,27.1-70.3
					C242.2,658,227.9,682,221.5,692.2z"/>
			</g>
			<g>
				<path fill="#A34164" d="M220.8,674.7c-0.1,0.2-15.9,28.3-19.2,54.2l-2.1-0.4c3.4-26.4,19.2-54.6,19.5-55c0.2-0.5,1-0.7,1.5-0.4
					C220.9,673.6,221.1,674.3,220.8,674.7z"/>
			</g>
		</g>
		<g>
			<g>
				<path fill="#BF456D" d="M185.8,726.9l-2.2,0.6l-2.1,0.6l-1.2,0.4c0.1-0.2-0.9-2.6-14.1-20.2c-5.4-7.2-20-26.8-6.6-30.1
					C172,675,186.2,716.7,185.8,726.9z"/>
			</g>
			<g>
				<path fill="#A34164" d="M183.7,727.5l-2.1,0.6c-3.8-17-19.2-37.8-19.3-38.1c-0.4-0.5-0.2-1.1,0.2-1.5c0.5-0.4,1.1-0.2,1.5,0.2
					C164.6,689.7,179.8,710.1,183.7,727.5z"/>
			</g>
		</g>
		<path fill="#EE4C7C" d="M212,771.7h-41.9v-45.8c0-2.7,2.2-5,5-5H207c2.7,0,5,2.2,5,5V771.7L212,771.7z"/>
	</g>
	<g>
		<path fill="#EE4C7C" d="M243.7,711.5l12.4,8.4c1.6,1.1,3.7,0.6,4.8-0.9l21.3-31.2l8.8-12.9l-18-12.2l-5.3,7.6l-24.8,36.5
			C241.7,708.3,242.1,710.5,243.7,711.5z"/>
		<path fill="#BF456D" d="M267.7,670.3c2.7,5.5,7.2,12.4,14.3,17.5l8.8-12.9l-18-12.2L267.7,670.3z"/>
		<path fill="#720738" d="M211.1,770.5l1.8,1.2c2.6,1.7,6,1.1,7.8-1.5l34.6-50.8l-11.1-7.6l-34.6,50.8
			C208,765.2,208.6,768.7,211.1,770.5z"/>
		<g>
			<path fill="#93094E" d="M262.5,588.6c-19.2,27.8-12.1,65.9,15.7,85.1c27.8,19.2,65.9,12.1,85.1-15.7s12.1-65.9-15.7-85.1
				C319.8,553.8,281.8,560.8,262.5,588.6z M270.3,593.8c16.2-23.5,48.5-29.5,72-13.2c23.5,16.2,29.5,48.5,13.2,72
				c-16.2,23.5-48.5,29.5-72,13.2C260,649.8,254.1,617.3,270.3,593.8z"/>
			<path opacity="0.5" fill="#FFFFFF" enable-background="new    " d="M262.2,612.8c-5.9,27.9,12.2,55.4,40.1,61.2
				c2.4,0.5,4.8,0.9,7.2,1c6.1,0.4,12.2-0.2,17.9-2c6-1.7,11.5-4.5,16.4-8.2c7.7-5.8,14-13.7,17.5-23.1c1-2.4,1.7-5,2.2-7.7
				c5.9-27.9-12.2-55.4-40.1-61.2c-2.7-0.6-5.4-0.9-8-1c-10-0.5-19.8,2-28.3,6.7c-5.4,3.1-10.2,7.1-14.1,11.8
				c-3.8,4.5-6.9,9.8-8.9,15.7C263.4,607.9,262.8,610.3,262.2,612.8z"/>
			<path opacity="0.5" fill="#FFFFFF" enable-background="new    " d="M287.3,578.3l56.7,86.4c7.7-5.8,14-13.7,17.5-23.1l-45.9-70
				C305.4,571.1,295.7,573.5,287.3,578.3z"/>
			<path opacity="0.5" fill="#FFFFFF" enable-background="new    " d="M264.1,605.8l45.3,69.2c6.1,0.4,12.2-0.2,17.9-2l-54.1-83
				C269.4,594.8,266.3,600,264.1,605.8z"/>
		</g>
	</g>
</g>
<g id="DESIGNED_BY_FREEPIK">
</g>
</svg>
